<?xml version="1.0" encoding="UTF-8" standalone="no"?>
<svg width="141px" height="45px" viewBox="0 0 141 45" version="1.1" xmlns="http://www.w3.org/2000/svg" xmlns:xlink="http://www.w3.org/1999/xlink" xmlns:sketch="http://www.bohemiancoding.com/sketch/ns">
    <!-- Generator: Sketch 3.3.3 (12081) - http://www.bohemiancoding.com/sketch -->
    <title>Logo</title>
    <desc>Created with Sketch.</desc>
    <defs></defs>
    <g id="Category-Page-(Auto)-V1" stroke="none" stroke-width="1" fill="none" fill-rule="evenodd" sketch:type="MSPage">
        <g id="Layout" sketch:type="MSArtboardGroup" transform="translate(-66.000000, -25.000000)" fill="#1A6ED2">
            <g id="Nav-Links" sketch:type="MSLayerGroup">
                <g id="Logo" transform="translate(66.000000, 25.000000)" sketch:type="MSShapeGroup">
                    <path d="M24.2616578,16.5613776 L27.1576043,16.5613776 C28.780107,16.5613776 31.0271444,16.2867857 31.0271444,13.9688265 C31.0271444,12.1242857 29.8286631,11.4763776 27.2822353,11.4763776 L24.2616578,11.4763776 L24.2616578,16.5613776 L24.2616578,16.5613776 Z M24.2616578,8.78418367 L27.1327701,8.78418367 C29.2298824,8.78418367 30.2779786,7.88693878 30.2779786,6.56586735 C30.2779786,5.04505102 29.2298824,4.2975 26.8582139,4.2975 L24.2616578,4.2975 L24.2616578,8.78418367 L24.2616578,8.78418367 Z M21.1159893,1.60530612 L28.0065668,1.60530612 C30.6776257,1.60530612 33.4236471,2.82673469 33.4236471,6.04239796 C33.4236471,8.03617347 32.1754973,9.3572449 30.3529412,9.90596939 L30.3529412,9.95556122 C32.5751444,10.204898 34.1728128,11.9497959 34.1728128,14.2181633 C34.1728128,18.0569388 30.8275508,19.2531122 27.4822888,19.2531122 L21.1159893,19.2531122 L21.1159893,1.60530612 L21.1159893,1.60530612 Z" id="Fill-1"></path>
                    <path d="M43.086,13.8939796 L42.4619251,13.8939796 C40.8141283,13.8939796 37.9678503,14.0188776 37.9678503,15.7385204 C37.9678503,16.8355102 39.091369,17.3089286 40.0649626,17.3089286 C42.1124064,17.3089286 43.086,16.2371939 43.086,14.5671429 L43.086,13.8939796 L43.086,13.8939796 Z M43.2607594,17.6083163 L43.1857968,17.6083163 C42.3368342,18.9541837 40.9387594,19.5525 39.3410909,19.5525 C37.1193476,19.5525 34.972107,18.3310714 34.972107,15.9630612 C34.972107,12.0742347 39.5158503,11.800102 42.5115936,11.800102 L43.2607594,11.800102 L43.2607594,11.4763776 C43.2607594,10.0056122 42.1124064,9.23280612 40.5142781,9.23280612 C39.2661283,9.23280612 38.1177754,9.73147959 37.3189412,10.4790306 L35.746107,8.90862245 C37.0692193,7.5627551 38.9414439,6.98923469 40.8389626,6.98923469 C45.9566524,6.98923469 45.9566524,10.6783163 45.9566524,12.3736224 L45.9566524,19.2531122 L43.2607594,19.2531122 L43.2607594,17.6083163 L43.2607594,17.6083163 Z" id="Fill-2"></path>
                    <path d="M45.8071872,7.28862245 L49.1023209,7.28862245 L52.4475829,15.5892857 L52.4977112,15.5892857 L55.4939144,7.28862245 L58.6147487,7.28862245 L52.9474866,21.8208673 C52.0732299,24.0639796 51.0246738,25.2358163 48.3784492,25.2358163 C47.6044492,25.2358163 46.8304492,25.1357143 46.0817433,24.9364286 L46.4560963,22.2442347 C46.9307059,22.4187245 47.454984,22.5436224 47.9788021,22.5436224 C49.4518396,22.5436224 49.8514866,22.0201531 50.3509305,20.7739286 L50.924877,19.3527551 L45.8071872,7.28862245" id="Fill-3"></path>
                    <path d="M69.3748663,12.5233163 L66.6536791,5.34443878 L63.8823636,12.5233163 L69.3748663,12.5233163 L69.3748663,12.5233163 Z M65.3802353,1.60530612 L68.1014225,1.60530612 L75.7158717,19.2531122 L72.1208877,19.2531122 L70.4730909,15.215051 L62.8089733,15.215051 L61.2113048,19.2531122 L57.6908235,19.2531122 L65.3802353,1.60530612 L65.3802353,1.60530612 Z" id="Fill-4"></path>
                    <path d="M76.4659572,7.28862245 L79.4617005,7.28862245 L79.4617005,9.1827551 L79.5118289,9.1827551 C80.160738,7.81209184 81.4838503,6.98923469 83.0566845,6.98923469 C83.4310374,6.98923469 83.7805561,7.06408163 84.1300749,7.16372449 L84.1300749,10.0552041 C83.6310909,9.93076531 83.1564813,9.83112245 82.6823316,9.83112245 C79.8613476,9.83112245 79.4617005,12.1991327 79.4617005,12.8470408 L79.4617005,19.2531122 L76.4659572,19.2531122 L76.4659572,7.28862245" id="Fill-5"></path>
                    <path d="M93.3219572,12.0742347 C93.2957433,10.3297959 92.1473904,9.23280612 90.2765455,9.23280612 C88.502738,9.23280612 87.4040535,10.3545918 87.1796257,12.0742347 L93.3219572,12.0742347 L93.3219572,12.0742347 Z M87.1796257,14.3178061 C87.3792193,16.0875 88.7285455,17.1592347 90.3997968,17.1592347 C91.8976684,17.1592347 92.8726417,16.4612755 93.6218075,15.5392347 L95.7685882,17.1592347 C94.3705134,18.8793367 92.5967059,19.5525 90.6996471,19.5525 C87.0798289,19.5525 84.1838824,17.0347959 84.1838824,13.2708673 C84.1838824,9.50693878 87.0798289,6.98923469 90.6996471,6.98923469 C94.0449091,6.98923469 96.3177005,9.33244898 96.3177005,13.4954082 L96.3177005,14.3178061 L87.1796257,14.3178061 L87.1796257,14.3178061 Z" id="Fill-6"></path>
                    <path d="M105.48015,13.8939796 L104.856075,13.8939796 C103.208278,13.8939796 100.362,14.0188776 100.362,15.7385204 C100.362,16.8355102 101.485519,17.3089286 102.459112,17.3089286 C104.506556,17.3089286 105.48015,16.2371939 105.48015,14.5671429 L105.48015,13.8939796 L105.48015,13.8939796 Z M105.654909,17.6083163 L105.579947,17.6083163 C104.730984,18.9541837 103.332909,19.5525 101.735241,19.5525 C99.5134973,19.5525 97.3662567,18.3310714 97.3662567,15.9630612 C97.3662567,12.0742347 101.91,11.800102 104.905743,11.800102 L105.654909,11.800102 L105.654909,11.4763776 C105.654909,10.0056122 104.506556,9.23280612 102.908428,9.23280612 C101.660278,9.23280612 100.511925,9.73147959 99.7130909,10.4790306 L98.1402567,8.90862245 C99.463369,7.5627551 101.336053,6.98923469 103.233112,6.98923469 C108.350802,6.98923469 108.350802,10.6783163 108.350802,12.3736224 L108.350802,19.2531122 L105.654909,19.2531122 L105.654909,17.6083163 L105.654909,17.6083163 Z" id="Fill-7"></path>
                    <path d="M21.1159893,21.6688776 L25.2853797,21.6688776 L33.8481283,34.779949 L33.8982567,34.83 L33.8481283,34.83 L33.8982567,34.779949 L33.8982567,21.6688776 L37.0439251,21.6688776 L37.0439251,39.3166837 L33.0492941,39.3166837 L24.3117861,25.7817857 L24.2616578,25.7817857 L24.2616578,39.3166837 L21.1159893,39.3166837 L21.1159893,21.6688776" id="Fill-8"></path>
                    <path d="M47.0052086,32.1378061 C46.9803743,30.3929082 45.8320214,29.2963776 43.9597968,29.2963776 C42.1869091,29.2963776 41.0886845,30.4181633 40.8637968,32.1378061 L47.0052086,32.1378061 L47.0052086,32.1378061 Z M40.8637968,34.3813776 C41.0638503,36.1510714 42.4117968,37.2228061 44.0844278,37.2228061 C45.5822995,37.2228061 46.555893,36.5248469 47.3050588,35.6028061 L49.4518396,37.2228061 C48.0537647,38.9429082 46.2813369,39.6160714 44.3838182,39.6160714 C40.764,39.6160714 37.8680535,37.0983673 37.8680535,33.3344388 C37.8680535,29.5705102 40.764,27.0528061 44.3838182,27.0528061 C47.7295401,27.0528061 50.0014118,29.3960204 50.0014118,33.5585204 L50.0014118,34.3813776 L40.8637968,34.3813776 L40.8637968,34.3813776 Z" id="Fill-9"></path>
                    <path d="M49.6767273,27.3521939 L52.9226524,27.3521939 L55.5192086,35.7272449 L55.568877,35.7272449 L57.9906738,27.3521939 L61.236139,27.3521939 L63.8322353,35.7272449 L63.8823636,35.7272449 L66.3786631,27.3521939 L69.3997005,27.3521939 L65.330107,39.3166837 L62.3596578,39.3166837 L59.5133797,31.1409184 L59.4637112,31.1409184 L56.9421176,39.3166837 L53.8465775,39.3166837 L49.6767273,27.3521939" id="Fill-10"></path>
                    <path d="M76.3151123,30.6675 C75.7407059,29.8694388 74.992,29.4460714 73.9682781,29.4460714 C73.1694439,29.4460714 72.2206845,29.8198469 72.2206845,30.7170918 C72.2206845,32.8605612 78.6867807,31.1161224 78.6867807,35.7772959 C78.6867807,38.6187245 75.9655936,39.6160714 73.5189626,39.6160714 C71.6715722,39.6160714 70.0739037,39.1421939 68.8505882,37.7715306 L70.8474439,35.9017347 C71.6214439,36.7493878 72.4202781,37.3725 73.6937219,37.3725 C74.5675187,37.3725 75.6910374,36.9486735 75.6910374,36.0013776 C75.6910374,33.5337245 69.2249412,35.4779082 69.2249412,30.9163776 C69.2249412,28.2494388 71.6214439,27.0528061 74.0432406,27.0528061 C75.6409091,27.0528061 77.3383743,27.5514796 78.3119679,28.872551 L76.3151123,30.6675" id="Fill-11"></path>
                    <path d="M96.2882674,38.120051 C94.2661176,39.2418367 91.9694118,39.7653061 89.672246,39.7653061 C84.1802032,39.7653061 80.2357005,36.0266327 80.2357005,30.492551 C80.2357005,24.9341327 84.4547594,21.2202551 89.7472086,21.2202551 C92.0692086,21.2202551 94.3157861,21.8433673 95.9884171,23.5382143 L94.4155829,25.1834694 C93.2175615,23.8871939 91.3950053,23.1644388 89.5977433,23.1644388 C85.552984,23.1644388 82.4822781,26.2056122 82.4822781,30.492551 C82.4822781,34.7055612 85.4531872,37.8211224 89.7973369,37.8211224 C91.220246,37.8211224 92.892877,37.4473469 94.1911551,36.7989796 L94.1911551,31.3902551 L90.1215615,31.3902551 L90.1215615,29.4460714 L96.2882674,29.4460714 L96.2882674,38.120051" id="Fill-12"></path>
                    <path d="M97.5865455,30.4181633 C97.5865455,29.3459694 97.4862888,28.4239286 97.4862888,27.6511224 L99.3336791,27.6511224 C99.3336791,28.2742347 99.3838075,28.922602 99.3838075,29.5705102 L99.4339358,29.5705102 C99.9582139,28.4239286 101.405957,27.3521939 103.32831,27.3521939 C103.578032,27.3521939 103.852588,27.3769898 104.127144,27.4766327 L104.002513,29.4460714 C103.677829,29.3459694 103.303476,29.2963776 102.953957,29.2963776 C100.582289,29.2963776 99.5337326,30.9664286 99.5337326,33.6333673 L99.5337326,39.3166837 L97.5865455,39.3166837 L97.5865455,30.4181633" id="Fill-13"></path>
                    <path d="M109.748877,37.8211224 C112.270471,37.8211224 113.893433,35.9265306 113.893433,33.4841327 C113.893433,31.0412755 112.270471,29.1466837 109.748877,29.1466837 C107.227743,29.1466837 105.604781,31.0412755 105.604781,33.4841327 C105.604781,35.9265306 107.227743,37.8211224 109.748877,37.8211224 L109.748877,37.8211224 L109.748877,37.8211224 Z M109.748877,27.3521939 C113.343861,27.3521939 115.990545,29.8446429 115.990545,33.4841327 C115.990545,37.1231633 113.343861,39.6160714 109.748877,39.6160714 C106.153893,39.6160714 103.507668,37.1231633 103.507668,33.4841327 C103.507668,29.8446429 106.153893,27.3521939 109.748877,27.3521939 L109.748877,27.3521939 L109.748877,27.3521939 Z" id="Fill-14"></path>
                    <path d="M126.949797,36.550102 C126.949797,37.6218367 127.049594,38.5438776 127.049594,39.3166837 L125.202203,39.3166837 C125.202203,38.6935714 125.152535,38.0456633 125.152535,37.3972959 L125.102406,37.3972959 C124.578128,38.5438776 123.130385,39.6160714 121.208032,39.6160714 C118.137326,39.6160714 116.764086,37.6714286 116.764086,34.8547959 L116.764086,27.6511224 L118.711733,27.6511224 L118.711733,34.6555102 C118.711733,36.5996939 119.560235,37.8211224 121.382791,37.8211224 C123.904385,37.8211224 125.00261,36.0013776 125.00261,33.3344388 L125.00261,27.6511224 L126.949797,27.6511224 L126.949797,36.550102" id="Fill-15"></path>
                    <path d="M134.29107,37.8211224 C136.812203,37.8211224 138.435166,35.9265306 138.435166,33.4841327 C138.435166,31.0412755 136.812203,29.1466837 134.29107,29.1466837 C131.769476,29.1466837 130.146513,31.0412755 130.146513,33.4841327 C130.146513,35.9265306 131.769476,37.8211224 134.29107,37.8211224 L134.29107,37.8211224 L134.29107,37.8211224 Z M128.199326,27.6511224 L130.146513,27.6511224 L130.146513,29.3459694 L130.196642,29.3459694 C131.270032,28.0997449 132.692941,27.3521939 134.390866,27.3521939 C138.060813,27.3521939 140.532278,29.9442857 140.532278,33.4841327 C140.532278,36.9734694 137.960556,39.6160714 134.690257,39.6160714 C132.593144,39.6160714 130.920513,38.5691327 130.196642,37.2480612 L130.146513,37.2480612 L130.146513,45 L128.199326,45 L128.199326,27.6511224 L128.199326,27.6511224 Z" id="Fill-16"></path>
                    <path d="M0,0.220408163 L14.3141711,0.220408163 L14.3141711,42.6531122 L0,42.6531122 L0,0.220408163 Z" id="Fill-17"></path>
                </g>
            </g>
        </g>
    </g>
</svg>